<?xml version="1.0" encoding="UTF-8" standalone="no"?>
<!-- Created with Inkscape (http://www.inkscape.org/) -->

<svg
   version="1.1"
   id="svg1"
   width="410.8667"
   height="403.31458"
   viewBox="0 0 410.8667 403.31457"
   xml:space="preserve"
   sodipodi:docname="node-success.svg"
   inkscape:version="1.3.2 (091e20e, 2023-11-25, custom)"
   xmlns:inkscape="http://www.inkscape.org/namespaces/inkscape"
   xmlns:sodipodi="http://sodipodi.sourceforge.net/DTD/sodipodi-0.dtd"
   xmlns="http://www.w3.org/2000/svg"
   xmlns:svg="http://www.w3.org/2000/svg"><sodipodi:namedview
     id="namedview1"
     pagecolor="#ffffff"
     bordercolor="#000000"
     borderopacity="0.25"
     inkscape:showpageshadow="2"
     inkscape:pageopacity="0.0"
     inkscape:pagecheckerboard="0"
     inkscape:deskcolor="#d1d1d1"
     inkscape:zoom="2.9083997"
     inkscape:cx="205.26752"
     inkscape:cy="201.48537"
     inkscape:window-width="1718"
     inkscape:window-height="1360"
     inkscape:window-x="-7"
     inkscape:window-y="0"
     inkscape:window-maximized="0"
     inkscape:current-layer="layer-MC1" /><defs
     id="defs1"><clipPath
       clipPathUnits="userSpaceOnUse"
       id="clipPath67"><path
         d="M 0,324.877 H 455.911 V 0 H 0 Z"
         transform="translate(-277.88793,-81.017502)"
         id="path67" /></clipPath><clipPath
       clipPathUnits="userSpaceOnUse"
       id="clipPath69"><path
         d="M 0,324.877 H 455.911 V 0 H 0 Z"
         transform="translate(-307.13501,-76.186002)"
         id="path69" /></clipPath><clipPath
       clipPathUnits="userSpaceOnUse"
       id="clipPath71"><path
         d="M 0,324.877 H 455.911 V 0 H 0 Z"
         transform="translate(-159.37173,-86.816502)"
         id="path71" /></clipPath><clipPath
       clipPathUnits="userSpaceOnUse"
       id="clipPath73"><path
         d="M 0,324.877 H 455.911 V 0 H 0 Z"
         transform="translate(-210.19451,-63.741102)"
         id="path73" /></clipPath><clipPath
       clipPathUnits="userSpaceOnUse"
       id="clipPath75"><path
         d="M 0,324.877 H 455.911 V 0 H 0 Z"
         transform="translate(-199.07103,-65.555502)"
         id="path75" /></clipPath><clipPath
       clipPathUnits="userSpaceOnUse"
       id="clipPath77"><path
         d="M 0,324.877 H 455.911 V 0 H 0 Z"
         transform="translate(-201.31893,-71.354404)"
         id="path77" /></clipPath><clipPath
       clipPathUnits="userSpaceOnUse"
       id="clipPath79"><path
         d="M 0,324.877 H 455.911 V 0 H 0 Z"
         transform="translate(-2.5000001e-5)"
         id="path79" /></clipPath><clipPath
       clipPathUnits="userSpaceOnUse"
       id="clipPath81"><path
         d="M 0,324.877 H 455.911 V 0 H 0 Z"
         transform="translate(-257.82101,-75.219402)"
         id="path81" /></clipPath><clipPath
       clipPathUnits="userSpaceOnUse"
       id="clipPath83"><path
         d="M 0,324.877 H 455.911 V 0 H 0 Z"
         transform="translate(-296.38233,-253.78041)"
         id="path83" /></clipPath><clipPath
       clipPathUnits="userSpaceOnUse"
       id="clipPath85"><path
         d="M 0,324.877 H 455.911 V 0 H 0 Z"
         transform="translate(-311.29263,-231.7058)"
         id="path85" /></clipPath><clipPath
       clipPathUnits="userSpaceOnUse"
       id="clipPath87"><path
         d="M 0,324.877 H 455.911 V 0 H 0 Z"
         transform="translate(-287.55843,-265.12011)"
         id="path87" /></clipPath><clipPath
       clipPathUnits="userSpaceOnUse"
       id="clipPath89"><path
         d="M 0,324.877 H 455.911 V 0 H 0 Z"
         transform="translate(-329.94258,-165.7676)"
         id="path89" /></clipPath><clipPath
       clipPathUnits="userSpaceOnUse"
       id="clipPath91"><path
         d="M 0,324.877 H 455.911 V 0 H 0 Z"
         transform="translate(-238.30481,-258.98921)"
         id="path91" /></clipPath><clipPath
       clipPathUnits="userSpaceOnUse"
       id="clipPath93"><path
         d="M 0,324.877 H 455.911 V 0 H 0 Z"
         transform="translate(-284.58813,-97.0616)"
         id="path93" /></clipPath><clipPath
       clipPathUnits="userSpaceOnUse"
       id="clipPath95"><path
         d="M 0,324.877 H 455.911 V 0 H 0 Z"
         transform="translate(-271.60758,-215.1515)"
         id="path95" /></clipPath><clipPath
       clipPathUnits="userSpaceOnUse"
       id="clipPath97"><path
         d="M 0,324.877 H 455.911 V 0 H 0 Z"
         transform="translate(-271.60758,-215.1515)"
         id="path97" /></clipPath><clipPath
       id="clipPath831"
       clipPathUnits="userSpaceOnUse"><path
         inkscape:connector-curvature="0"
         id="path829"
         d="M 0,368.504 H 368.504 V 0 H 0 Z" /></clipPath></defs><g
     id="layer-MC1"
     style="display:inline"
     transform="translate(-1355.709,-16.658207)"><path
       id="path65"
       style="fill:#326ce5;fill-opacity:1;fill-rule:nonzero;stroke:none"
       d="M 227.53052,312.38335 104.9685,252.7437 74.959715,119.28032 160.10083,12.494674 l 136.1792,0.301757 84.6709,107.165039 -30.59619,133.32862 z"
       transform="matrix(1.3333333,0,0,-1.3333333,1255.7627,433.16933)" /><g
       clip-path="url(#clipPath831)"
       id="g827"
       transform="matrix(2.8055031,0,0,-2.8055031,787.28102,737.17144)"
       style="display:inline"><g
         transform="translate(275.2144,225.8688)"
         id="g833"
         style="fill:#ffffff;fill-opacity:1"><path
           inkscape:connector-curvature="0"
           id="path835"
           style="fill:#ffffff;fill-opacity:1;fill-rule:nonzero;stroke:none"
           d="M 0,0 C 2.59,0 4.697,2.107 4.697,4.697 4.697,7.287 2.59,9.394 0,9.394 -2.589,9.394 -4.696,7.287 -4.696,4.697 -4.696,2.107 -2.589,0 0,0" /></g><g
         transform="translate(275.2144,213.9675)"
         id="g837"
         style="fill:#ffffff;fill-opacity:1"><path
           inkscape:connector-curvature="0"
           id="path839"
           style="fill:#ffffff;fill-opacity:1;fill-rule:nonzero;stroke:none"
           d="M 0,0 C 2.59,0 4.697,2.107 4.697,4.697 4.697,7.287 2.59,9.394 0,9.394 -2.589,9.394 -4.696,7.287 -4.696,4.697 -4.696,2.107 -2.589,0 0,0" /></g><g
         transform="translate(246.7153,194.862)"
         id="g841"
         style="fill:#ffffff;fill-opacity:1"><path
           inkscape:connector-curvature="0"
           id="path843"
           style="fill:#ffffff;fill-opacity:1;fill-rule:nonzero;stroke:none"
           d="m 0,0 c 0,-2.59 2.107,-4.697 4.696,-4.697 2.591,0 4.698,2.107 4.698,4.697 0,6.356 7.093,7.194 7.165,7.202 2.629,0.002 4.736,2.11 4.736,4.699 0,2.59 -2.107,4.697 -4.697,4.697 -2.589,0 -4.697,-2.107 -4.697,-4.697 0,-6.88 -7.12,-7.202 -7.192,-7.204 C 2.107,4.697 0,2.589 0,0" /></g><g
         transform="translate(310.9185,199.5588)"
         id="g845"
         style="fill:#ffffff;fill-opacity:1"><path
           inkscape:connector-curvature="0"
           id="path847"
           style="fill:#ffffff;fill-opacity:1;fill-rule:nonzero;stroke:none"
           d="m 0,0 c -6.88,0 -7.202,7.12 -7.205,7.192 0,2.602 -2.107,4.709 -4.696,4.709 -6.88,0 -7.202,7.12 -7.204,7.192 0,2.602 -2.108,4.709 -4.697,4.709 -2.591,0 -4.697,-2.107 -4.697,-4.697 0,-6.879 -7.12,-7.202 -7.193,-7.204 -6.892,0 -7.213,7.12 -7.216,7.192 0,2.602 -2.108,4.709 -4.697,4.709 -2.589,0 -4.697,-2.107 -4.697,-4.697 0,-2.589 2.108,-4.696 4.697,-4.696 6.357,0 7.195,-7.094 7.203,-7.166 C -40.4,0.324 -47.521,0.002 -47.593,0 c -2.601,0 -4.709,-2.107 -4.709,-4.697 0,-6.88 -7.12,-7.202 -7.192,-7.204 -6.892,-10e-4 -7.214,7.12 -7.217,7.192 0,6.369 7.094,7.207 7.165,7.214 2.63,0.002 4.736,2.11 4.736,4.699 0,2.59 -2.106,4.697 -4.697,4.697 -2.589,0 -4.696,-2.107 -4.696,-4.697 0,-6.88 -7.12,-7.202 -7.193,-7.204 -2.602,0 -4.709,-2.107 -4.709,-4.697 0,-2.59 2.107,-4.697 4.698,-4.697 6.355,0 7.194,-7.094 7.202,-7.166 0.002,-2.628 2.109,-4.735 4.698,-4.735 6.358,0 7.195,-7.094 7.203,-7.165 0.002,-6.919 -7.118,-7.242 -7.19,-7.244 -2.602,0 -4.709,-2.107 -4.709,-4.697 0,-2.59 2.107,-4.697 4.696,-4.697 2.591,0 4.697,2.107 4.697,4.697 0,6.357 7.094,7.195 7.165,7.203 2.629,0.002 4.737,2.109 4.737,4.698 0,2.59 -2.108,4.697 -4.697,4.697 -6.879,0 -7.202,7.12 -7.205,7.192 0,6.369 7.094,7.207 7.165,7.215 2.629,0.002 4.737,2.109 4.737,4.699 0,6.357 7.094,7.195 7.165,7.202 h 0.003 c 6.393,0 7.23,-7.091 7.238,-7.163 0.003,-2.629 2.109,-4.736 4.7,-4.736 2.589,0 4.697,2.107 4.697,4.697 0,2.59 -2.108,4.697 -4.697,4.697 -6.881,0 -7.202,7.12 -7.205,7.192 0,6.369 7.094,7.207 7.166,7.215 h 0.002 c 6.395,0 7.232,-7.093 7.239,-7.164 0.002,-2.628 2.11,-4.736 4.699,-4.736 6.357,0 7.195,-7.093 7.203,-7.165 0.002,-6.919 -7.118,-7.241 -7.191,-7.243 -2.601,-10e-4 -4.709,-2.108 -4.709,-4.698 0,-2.589 2.108,-4.696 4.697,-4.696 2.589,0 4.696,2.107 4.696,4.696 0,6.357 7.095,7.195 7.166,7.203 2.629,0.002 4.736,2.109 4.736,4.699 C 4.697,-2.107 2.59,0 0,0" /></g><g
         transform="translate(287.1284,163.8547)"
         id="g849"
         style="fill:#ffffff;fill-opacity:1"><path
           inkscape:connector-curvature="0"
           id="path851"
           style="fill:#ffffff;fill-opacity:1;fill-rule:nonzero;stroke:none"
           d="m 0,0 h -0.006 -0.006 c -6.881,0 -7.202,7.121 -7.205,7.192 0,2.602 -2.107,4.709 -4.697,4.709 -6.88,0 -7.201,7.12 -7.204,7.192 0,6.369 7.094,7.207 7.165,7.215 h 0.003 c 6.393,0 7.23,-7.092 7.238,-7.163 0.003,-2.629 2.109,-4.736 4.7,-4.736 6.357,0 7.195,-7.094 7.202,-7.165 C 7.192,0.325 0.072,0.002 0,0 m 23.79,23.802 c -2.589,0 -4.696,-2.107 -4.696,-4.697 0,-6.879 -7.12,-7.201 -7.193,-7.203 -6.892,-10e-4 -7.214,7.119 -7.216,7.191 0,6.369 7.093,7.207 7.165,7.215 2.629,0.003 4.735,2.109 4.735,4.699 0,2.59 -2.106,4.697 -4.696,4.697 -6.88,0 -7.202,7.12 -7.204,7.192 0,2.602 -2.108,4.709 -4.697,4.709 -2.591,0 -4.697,-2.107 -4.697,-4.697 0,-2.589 2.106,-4.697 4.697,-4.697 6.357,0 7.195,-7.093 7.202,-7.165 C 7.192,24.127 0.072,23.805 0,23.803 c -6.893,-0.001 -7.214,7.12 -7.217,7.192 0,2.602 -2.107,4.709 -4.697,4.709 -2.589,0 -4.696,-2.107 -4.696,-4.697 0,-6.88 -7.12,-7.202 -7.193,-7.204 -2.601,-0.001 -4.709,-2.108 -4.709,-4.698 0,-2.589 2.108,-4.696 4.697,-4.696 6.357,0 7.195,-7.094 7.203,-7.165 C -16.61,0.325 -23.73,0.002 -23.803,0 c -2.601,0 -4.709,-2.107 -4.709,-4.697 0,-6.88 -7.12,-7.201 -7.192,-7.204 -6.892,0 -7.214,7.12 -7.217,7.192 0,6.369 7.094,7.207 7.165,7.215 2.63,0.002 4.736,2.109 4.736,4.699 0,2.589 -2.106,4.696 -4.697,4.696 -6.879,0 -7.201,7.12 -7.204,7.192 0,2.602 -2.106,4.709 -4.696,4.709 -2.591,0 -4.697,-2.107 -4.697,-4.697 0,-2.589 2.106,-4.696 4.697,-4.696 6.355,0 7.194,-7.094 7.202,-7.165 0.002,-6.919 -7.118,-7.242 -7.19,-7.244 -2.603,0 -4.709,-2.107 -4.709,-4.697 0,-2.59 2.106,-4.697 4.697,-4.697 6.355,0 7.194,-7.093 7.202,-7.165 0.002,-2.629 2.109,-4.736 4.698,-4.736 2.591,0 4.697,2.107 4.697,4.697 0,6.356 7.094,7.194 7.166,7.202 2.628,0.002 4.736,2.109 4.736,4.699 0,6.357 7.094,7.195 7.165,7.203 h 0.003 c 6.393,0 7.23,-7.092 7.238,-7.164 0.003,-2.629 2.109,-4.736 4.7,-4.736 2.589,0 4.697,2.107 4.697,4.697 0,6.357 7.093,7.195 7.165,7.203 h 0.003 c 6.393,0 7.231,-7.092 7.239,-7.164 0.002,-2.629 2.109,-4.736 4.698,-4.736 2.59,0 4.697,2.107 4.697,4.697 0,2.59 -2.107,4.697 -4.697,4.697 -6.88,0 -7.202,7.121 -7.205,7.192 0,6.37 7.095,7.207 7.166,7.215 2.629,0.002 4.736,2.109 4.736,4.698 0,2.59 -2.107,4.697 -4.697,4.697" /></g><g
         transform="translate(244.2075,171.0592)"
         id="g853"
         style="fill:#ffffff;fill-opacity:1"><path
           inkscape:connector-curvature="0"
           id="path855"
           style="fill:#ffffff;fill-opacity:1;fill-rule:nonzero;stroke:none"
           d="m 0,0 c 0,2.589 -2.106,4.697 -4.696,4.697 -2.591,0 -4.698,-2.108 -4.698,-4.697 0,-2.59 2.107,-4.697 4.698,-4.697 C -2.106,-4.697 0,-2.59 0,0" /></g><g
         transform="translate(287.1167,175.756)"
         id="g857"
         style="fill:#ffffff;fill-opacity:1"><path
           inkscape:connector-curvature="0"
           id="path859"
           style="fill:#ffffff;fill-opacity:1;fill-rule:nonzero;stroke:none"
           d="m 0,0 c -6.881,0 -7.202,7.12 -7.205,7.192 0,2.602 -2.108,4.709 -4.697,4.709 -2.589,0 -4.697,-2.107 -4.697,-4.697 0,-2.589 2.108,-4.697 4.697,-4.697 6.356,0 7.194,-7.093 7.202,-7.165 0.003,-2.629 2.109,-4.736 4.7,-4.736 2.589,0 4.696,2.107 4.696,4.697 C 4.696,-2.107 2.589,0 0,0" /></g><g
         transform="translate(306.2222,171.0592)"
         id="g861"
         style="fill:#ffffff;fill-opacity:1"><path
           inkscape:connector-curvature="0"
           id="path863"
           style="fill:#ffffff;fill-opacity:1;fill-rule:nonzero;stroke:none"
           d="m 0,0 c 0,-2.59 2.107,-4.697 4.696,-4.697 2.59,0 4.698,2.107 4.698,4.697 0,2.589 -2.108,4.697 -4.698,4.697 C 2.107,4.697 0,2.589 0,0" /></g><g
         transform="translate(299.0171,163.8547)"
         id="g865"
         style="fill:#ffffff;fill-opacity:1"><path
           inkscape:connector-curvature="0"
           id="path867"
           style="fill:#ffffff;fill-opacity:1;fill-rule:nonzero;stroke:none"
           d="m 0,0 c -2.589,0 -4.696,-2.107 -4.696,-4.697 0,-6.88 -7.12,-7.202 -7.193,-7.204 -6.892,0 -7.214,7.12 -7.216,7.192 0,2.602 -2.108,4.709 -4.698,4.709 -2.589,0 -4.696,-2.107 -4.696,-4.697 0,-6.88 -7.12,-7.202 -7.192,-7.204 -2.602,0 -4.709,-2.107 -4.709,-4.697 0,-2.59 2.107,-4.697 4.696,-4.697 2.59,0 4.697,2.107 4.697,4.697 0,6.357 7.094,7.194 7.165,7.202 h 0.003 c 6.394,0 7.231,-7.092 7.238,-7.163 0.003,-6.919 -7.117,-7.241 -7.19,-7.243 -2.601,-0.001 -4.708,-2.108 -4.708,-4.698 0,-2.589 2.107,-4.696 4.696,-4.696 2.59,0 4.698,2.107 4.698,4.696 0,6.357 7.093,7.195 7.166,7.203 2.627,0.002 4.735,2.109 4.735,4.699 0,6.357 7.094,7.194 7.165,7.202 2.629,0.002 4.735,2.109 4.735,4.699 C 4.696,-2.107 2.59,0 0,0" /></g><g
         transform="translate(279.9117,147.2565)"
         id="g869"
         style="fill:#ffffff;fill-opacity:1"><path
           inkscape:connector-curvature="0"
           id="path871"
           style="fill:#ffffff;fill-opacity:1;fill-rule:nonzero;stroke:none"
           d="M 0,0 C 0,2.59 -2.107,4.697 -4.697,4.697 -7.286,4.697 -9.394,2.59 -9.394,0 c 0,-2.59 2.108,-4.697 4.697,-4.697 C -2.107,-4.697 0,-2.59 0,0" /></g><g
         transform="translate(299.0171,151.9533)"
         id="g873"
         style="fill:#ffffff;fill-opacity:1"><path
           inkscape:connector-curvature="0"
           id="path875"
           style="fill:#ffffff;fill-opacity:1;fill-rule:nonzero;stroke:none"
           d="m 0,0 c -2.589,0 -4.696,-2.107 -4.696,-4.697 0,-2.59 2.107,-4.697 4.696,-4.697 2.59,0 4.696,2.107 4.696,4.697 C 4.696,-2.107 2.59,0 0,0" /></g><g
         transform="translate(287.1167,138.3654)"
         id="g877"
         style="fill:#ffffff;fill-opacity:1"><path
           inkscape:connector-curvature="0"
           id="path879"
           style="fill:#ffffff;fill-opacity:1;fill-rule:nonzero;stroke:none"
           d="m 0,0 c -1.66,0 -3.011,-1.351 -3.011,-3.01 0,-1.66 1.351,-3.01 3.011,-3.01 1.659,0 3.01,1.35 3.01,3.01 C 3.01,-1.351 1.659,0 0,0" /></g><g
         transform="translate(263.313,138.3654)"
         id="g881"
         style="fill:#ffffff;fill-opacity:1"><path
           inkscape:connector-curvature="0"
           id="path883"
           style="fill:#ffffff;fill-opacity:1;fill-rule:nonzero;stroke:none"
           d="m 0,0 c -1.659,0 -3.01,-1.351 -3.01,-3.01 0,-1.66 1.351,-3.01 3.01,-3.01 1.66,0 3.011,1.35 3.011,3.01 C 3.011,-1.351 1.66,0 0,0" /></g><g
         transform="translate(310.9185,150.2668)"
         id="g885"
         style="fill:#ffffff;fill-opacity:1"><path
           inkscape:connector-curvature="0"
           id="path887"
           style="fill:#ffffff;fill-opacity:1;fill-rule:nonzero;stroke:none"
           d="m 0,0 c -1.659,0 -3.01,-1.351 -3.01,-3.01 0,-1.66 1.351,-3.011 3.01,-3.011 1.66,0 3.011,1.351 3.011,3.011 C 3.011,-1.351 1.66,0 0,0" /></g><g
         transform="translate(239.5112,150.2668)"
         id="g889"
         style="fill:#ffffff;fill-opacity:1"><path
           inkscape:connector-curvature="0"
           id="path891"
           style="fill:#ffffff;fill-opacity:1;fill-rule:nonzero;stroke:none"
           d="m 0,0 c -1.66,0 -3.01,-1.351 -3.01,-3.01 0,-1.66 1.35,-3.011 3.01,-3.011 1.659,0 3.01,1.351 3.01,3.011 C 3.01,-1.351 1.659,0 0,0" /></g><g
         transform="translate(239.5112,203.7531)"
         id="g893"
         style="fill:#ffffff;fill-opacity:1"><path
           inkscape:connector-curvature="0"
           id="path895"
           style="fill:#ffffff;fill-opacity:1;fill-rule:nonzero;stroke:none"
           d="M 0,0 C 1.659,0 3.01,1.35 3.01,3.01 3.01,4.669 1.659,6.02 0,6.02 -1.66,6.02 -3.01,4.669 -3.01,3.01 -3.01,1.35 -1.66,0 0,0" /></g><g
         transform="translate(251.4116,215.654)"
         id="g897"
         style="fill:#ffffff;fill-opacity:1"><path
           inkscape:connector-curvature="0"
           id="path899"
           style="fill:#ffffff;fill-opacity:1;fill-rule:nonzero;stroke:none"
           d="M 0,0 C 1.66,0 3.011,1.351 3.011,3.01 3.011,4.67 1.66,6.021 0,6.021 -1.659,6.021 -3.01,4.67 -3.01,3.01 -3.01,1.351 -1.659,0 0,0" /></g><g
         transform="translate(299.0171,215.654)"
         id="g901"
         style="fill:#ffffff;fill-opacity:1"><path
           inkscape:connector-curvature="0"
           id="path903"
           style="fill:#ffffff;fill-opacity:1;fill-rule:nonzero;stroke:none"
           d="M 0,0 C 1.66,0 3.011,1.351 3.011,3.01 3.011,4.67 1.66,6.021 0,6.021 -1.659,6.021 -3.01,4.67 -3.01,3.01 -3.01,1.351 -1.659,0 0,0" /></g><g
         transform="translate(310.9185,203.7531)"
         id="g905"
         style="fill:#ffffff;fill-opacity:1"><path
           inkscape:connector-curvature="0"
           id="path907"
           style="fill:#ffffff;fill-opacity:1;fill-rule:nonzero;stroke:none"
           d="M 0,0 C 1.66,0 3.011,1.35 3.011,3.01 3.011,4.669 1.66,6.02 0,6.02 -1.659,6.02 -3.01,4.669 -3.01,3.01 -3.01,1.35 -1.659,0 0,0" /></g><g
         transform="translate(275.2144,240.1188)"
         id="g909"
         style="fill:#ffffff;fill-opacity:1"><path
           inkscape:connector-curvature="0"
           id="path911"
           style="fill:#ffffff;fill-opacity:1;fill-rule:nonzero;stroke:none"
           d="M 0,0 C 0.73,0 1.324,0.593 1.324,1.323 1.324,2.053 0.73,2.646 0,2.646 -0.729,2.646 -1.322,2.053 -1.322,1.323 -1.322,0.593 -0.729,0 0,0" /></g><g
         transform="translate(287.1167,229.2424)"
         id="g913"
         style="fill:#ffffff;fill-opacity:1"><path
           inkscape:connector-curvature="0"
           id="path915"
           style="fill:#ffffff;fill-opacity:1;fill-rule:nonzero;stroke:none"
           d="M 0,0 C 0.729,0 1.322,0.594 1.322,1.323 1.322,2.053 0.729,2.646 0,2.646 -0.729,2.646 -1.323,2.053 -1.323,1.323 -1.323,0.594 -0.729,0 0,0" /></g><g
         transform="translate(263.313,229.2424)"
         id="g917"
         style="fill:#ffffff;fill-opacity:1"><path
           inkscape:connector-curvature="0"
           id="path919"
           style="fill:#ffffff;fill-opacity:1;fill-rule:nonzero;stroke:none"
           d="M 0,0 C 0.73,0 1.324,0.594 1.324,1.323 1.324,2.053 0.73,2.646 0,2.646 -0.729,2.646 -1.323,2.053 -1.323,1.323 -1.323,0.594 -0.729,0 0,0" /></g><g
         transform="translate(251.4116,138.3654)"
         id="g921"
         style="fill:#ffffff;fill-opacity:1"><path
           inkscape:connector-curvature="0"
           id="path923"
           style="fill:#ffffff;fill-opacity:1;fill-rule:nonzero;stroke:none"
           d="m 0,0 c -0.729,0 -1.322,-0.594 -1.322,-1.323 0,-0.73 0.593,-1.323 1.322,-1.323 0.73,0 1.324,0.593 1.324,1.323 C 1.324,-0.594 0.73,0 0,0" /></g><g
         transform="translate(227.4556,174.0695)"
         id="g925"
         style="fill:#ffffff;fill-opacity:1"><path
           inkscape:connector-curvature="0"
           id="path927"
           style="fill:#ffffff;fill-opacity:1;fill-rule:nonzero;stroke:none"
           d="m 0,0 c -1.659,0 -3.011,-1.351 -3.011,-3.01 0,-1.66 1.352,-3.011 3.011,-3.011 1.66,0 3.011,1.351 3.011,3.011 C 3.011,-1.351 1.66,0 0,0" /></g><g
         transform="translate(227.4556,185.9704)"
         id="g929"
         style="fill:#ffffff;fill-opacity:1"><path
           inkscape:connector-curvature="0"
           id="path931"
           style="fill:#ffffff;fill-opacity:1;fill-rule:nonzero;stroke:none"
           d="m 0,0 c -1.659,0 -3.011,-1.351 -3.011,-3.01 0,-1.66 1.352,-3.01 3.011,-3.01 1.66,0 3.011,1.35 3.011,3.01 C 3.011,-1.351 1.66,0 0,0" /></g><g
         transform="translate(229.1421,160.4811)"
         id="g933"
         style="fill:#ffffff;fill-opacity:1"><path
           inkscape:connector-curvature="0"
           id="path935"
           style="fill:#ffffff;fill-opacity:1;fill-rule:nonzero;stroke:none"
           d="m 0,0 c -0.729,0 -1.323,-0.593 -1.323,-1.323 0,-0.73 0.594,-1.323 1.323,-1.323 0.73,0 1.324,0.593 1.324,1.323 C 1.324,-0.593 0.73,0 0,0" /></g><g
         transform="translate(229.1421,196.1847)"
         id="g937"
         style="fill:#ffffff;fill-opacity:1"><path
           inkscape:connector-curvature="0"
           id="path939"
           style="fill:#ffffff;fill-opacity:1;fill-rule:nonzero;stroke:none"
           d="m 0,0 c -0.729,0 -1.323,-0.593 -1.323,-1.323 0,-0.73 0.594,-1.323 1.323,-1.323 0.73,0 1.324,0.593 1.324,1.323 C 1.324,-0.593 0.73,0 0,0" /></g><g
         transform="translate(322.9742,174.0695)"
         id="g941"
         style="fill:#ffffff;fill-opacity:1"><path
           inkscape:connector-curvature="0"
           id="path943"
           style="fill:#ffffff;fill-opacity:1;fill-rule:nonzero;stroke:none"
           d="m 0,0 c -1.66,0 -3.01,-1.351 -3.01,-3.01 0,-1.66 1.35,-3.011 3.01,-3.011 1.659,0 3.01,1.351 3.01,3.011 C 3.01,-1.351 1.659,0 0,0" /></g><g
         transform="translate(322.9742,179.9504)"
         id="g945"
         style="fill:#ffffff;fill-opacity:1"><path
           inkscape:connector-curvature="0"
           id="path947"
           style="fill:#ffffff;fill-opacity:1;fill-rule:nonzero;stroke:none"
           d="M 0,0 C 1.659,0 3.01,1.35 3.01,3.01 3.01,4.669 1.659,6.02 0,6.02 -1.66,6.02 -3.01,4.669 -3.01,3.01 -3.01,1.35 -1.66,0 0,0" /></g><g
         transform="translate(321.2876,160.4811)"
         id="g949"
         style="fill:#ffffff;fill-opacity:1"><path
           inkscape:connector-curvature="0"
           id="path951"
           style="fill:#ffffff;fill-opacity:1;fill-rule:nonzero;stroke:none"
           d="m 0,0 c -0.729,0 -1.323,-0.593 -1.323,-1.323 0,-0.73 0.594,-1.323 1.323,-1.323 0.729,0 1.322,0.593 1.322,1.323 C 1.322,-0.593 0.729,0 0,0" /></g><g
         transform="translate(321.2876,193.5383)"
         id="g953"
         style="fill:#ffffff;fill-opacity:1"><path
           inkscape:connector-curvature="0"
           id="path955"
           style="fill:#ffffff;fill-opacity:1;fill-rule:nonzero;stroke:none"
           d="M 0,0 C 0.729,0 1.322,0.594 1.322,1.324 1.322,2.053 0.729,2.646 0,2.646 -0.729,2.646 -1.323,2.053 -1.323,1.324 -1.323,0.594 -0.729,0 0,0" /></g><g
         transform="translate(299.0171,138.3654)"
         id="g957"
         style="fill:#ffffff;fill-opacity:1"><path
           inkscape:connector-curvature="0"
           id="path959"
           style="fill:#ffffff;fill-opacity:1;fill-rule:nonzero;stroke:none"
           d="m 0,0 c -0.729,0 -1.323,-0.594 -1.323,-1.323 0,-0.73 0.594,-1.323 1.323,-1.323 0.729,0 1.323,0.593 1.323,1.323 C 1.323,-0.594 0.729,0 0,0" /></g></g><circle
       style="fill:#ffffff"
       id="path99"
       cx="1692.7146"
       cy="344.53485"
       r="50.852394" /><path
       d="m 1690.6202,382.35232 q 3.2046,0 5.3725,-2.16782 2.1678,-2.16782 2.1678,-5.37242 0,-3.2046 -2.1678,-5.37242 -2.1679,-2.16782 -5.3725,-2.16782 -3.2046,0 -5.3724,2.16782 -2.1678,2.16782 -2.1678,5.37242 0,3.2046 2.1678,5.37242 2.1678,2.16782 5.3724,2.16782 z m -7.5402,-30.16095 h 15.0805 V 306.94995 H 1683.08 Z m 7.5402,67.86213 q -15.646,0 -29.4069,-5.93794 -13.7609,-5.93794 -23.9402,-16.11725 -10.1794,-10.17932 -16.1173,-23.94025 -5.9379,-13.76094 -5.9379,-29.40693 0,-15.64599 5.9379,-29.40692 5.9379,-13.76093 16.1173,-23.94025 10.1793,-10.17932 23.9402,-16.11725 13.7609,-5.93794 29.4069,-5.93794 15.646,0 29.407,5.93794 13.7609,5.93793 23.9402,16.11725 10.1793,10.17932 16.1173,23.94025 5.9379,13.76093 5.9379,29.40692 0,15.64599 -5.9379,29.40693 -5.938,13.76093 -16.1173,23.94025 -10.1793,10.17931 -23.9402,16.11725 -13.761,5.93794 -29.407,5.93794 z"
       id="path1"
       style="display:inline;fill:#ea3323;stroke-width:0.188506" /></g></svg>
